<svg xmlns="http://www.w3.org/2000/svg" viewBox="10003 2544.964 138.234 87.874"><defs><style>.a{fill:#ff8300;}.b{fill:#eb0029;}.c{fill:#041e41;}</style></defs><g transform="translate(10002.989 2545.001)"><g transform="translate(15.202 79.11)"><path class="a" d="M24.536,116.145a1.551,1.551,0,0,0,.873-.218,1.17,1.17,0,0,0,.218-.8v-.218a1.37,1.37,0,0,0-.145-.582.8.8,0,0,0-.654-.291l-1.527-.218c-.291-.073-.654-.073-.945-.145a1.733,1.733,0,0,1-.8-.436,1.583,1.583,0,0,1-.364-.582,2.484,2.484,0,0,1-.145-1.091v-.436a4.291,4.291,0,0,1,.145-1.018,1.059,1.059,0,0,1,.436-.654,2.6,2.6,0,0,1,1.891-.654h.945a8.176,8.176,0,0,1,1.454.145,3.049,3.049,0,0,1,1.018.655l-.654,1.091a2.721,2.721,0,0,0-1.818-.582h-.945a1.551,1.551,0,0,0-.873.218.378.378,0,0,0-.145.291.922.922,0,0,0-.073.436v.218a2.123,2.123,0,0,0,.145.654.8.8,0,0,0,.654.291l1.527.218q.654.109,1.091.218a1.509,1.509,0,0,1,.727.436l.218.218a.551.551,0,0,1,.145.291c.073.145.073.291.145.436,0,.145.073.364.073.654v.364a4.292,4.292,0,0,1-.145,1.018,1.059,1.059,0,0,1-.436.654,2.6,2.6,0,0,1-1.891.654H23.445a7.5,7.5,0,0,1-1.454-.145,2.443,2.443,0,0,1-1.091-.655l.654-1.091a1.509,1.509,0,0,0,.727.436,3.684,3.684,0,0,0,.945.145h1.309Z" transform="translate(-20.9 -108.8)"/><path class="a" d="M36.809,108.9a2.6,2.6,0,0,1,1.891.654,2.537,2.537,0,0,1,.436.654,3.79,3.79,0,0,1,.145,1.018v1.891c0,.145,0,.218-.073.291s-.073.145-.145.218a1,1,0,0,0-.218.291l-.436.436a1.114,1.114,0,0,1-.509.364,2.027,2.027,0,0,1-.727.073H34.554v2.618H33.1v-8.145c0-.291.145-.364.436-.364h3.272Zm-2.4,1.309v3.345H37.1c.073,0,.073-.073.145-.145l.291-.291c.073-.073.073-.145.145-.145v-1.745c0-.218,0-.364-.073-.436-.073-.145-.073-.218-.145-.291a1.263,1.263,0,0,0-.873-.218H34.409Z" transform="translate(-24.228 -108.827)"/><path class="a" d="M47.073,117.526a2.6,2.6,0,0,1-1.891-.654,2.538,2.538,0,0,1-.436-.654A3.791,3.791,0,0,1,44.6,115.2v-4.072a4.292,4.292,0,0,1,.145-1.018,1.059,1.059,0,0,1,.436-.654,2.6,2.6,0,0,1,1.891-.654h2.036a2.6,2.6,0,0,1,1.891.654,2.537,2.537,0,0,1,.436.654,3.79,3.79,0,0,1,.145,1.018V115.2a4.291,4.291,0,0,1-.145,1.018,1.059,1.059,0,0,1-.436.654,2.6,2.6,0,0,1-1.891.654Zm1.891-1.382a1.551,1.551,0,0,0,.873-.218,1.17,1.17,0,0,0,.218-.8V111.2c0-.218,0-.364-.073-.436-.073-.145-.073-.218-.145-.291a1.263,1.263,0,0,0-.873-.218H47.218a1.551,1.551,0,0,0-.873.218.378.378,0,0,0-.145.291.922.922,0,0,0-.073.436v3.927c0,.218,0,.364.073.436.073.145.073.218.145.291a1.263,1.263,0,0,0,.873.218h1.745Z" transform="translate(-27.365 -108.8)"/><path class="a" d="M64.054,112.536v.436c0,.145,0,.218-.073.291s-.073.145-.145.218a1,1,0,0,0-.218.291l-.364.364c-.145.145-.218.218-.291.218l1.236,3.054H62.6l-1.091-2.763H59.254v2.763H57.8v-8.145c0-.291.145-.364.436-.364h3.345a2.6,2.6,0,0,1,1.891.655,2.538,2.538,0,0,1,.436.654,3.792,3.792,0,0,1,.145,1.018v1.309Zm-4.872-2.327v3.2h2.763c.073,0,.073-.073.145-.145l.291-.291c.073-.073.073-.145.145-.145v-1.6c0-.218,0-.364-.073-.436-.073-.145-.073-.218-.145-.291a1.263,1.263,0,0,0-.873-.218H59.182Z" transform="translate(-30.966 -108.827)"/><path class="a" d="M73.327,117.381H71.873v-7.272H69.4V108.8h6.4v1.309H73.327Z" transform="translate(-34.13 -108.8)"/><path class="a" d="M89.372,117.526a2.6,2.6,0,0,1-1.891-.654,2.536,2.536,0,0,1-.436-.654A3.789,3.789,0,0,1,86.9,115.2v-4.072a4.29,4.29,0,0,1,.145-1.018,1.059,1.059,0,0,1,.436-.654,2.6,2.6,0,0,1,1.891-.654h1.309a4.235,4.235,0,0,1,1.382.218,2.465,2.465,0,0,1,1.018.655l-.654,1.091a1.734,1.734,0,0,0-.8-.436,4.4,4.4,0,0,0-1.091-.145H89.372a1.551,1.551,0,0,0-.873.218.378.378,0,0,0-.145.291.922.922,0,0,0-.073.436v3.927c0,.218,0,.364.073.436.073.145.073.218.145.291a1.263,1.263,0,0,0,.873.218h1.236a4.4,4.4,0,0,0,1.091-.145,1.734,1.734,0,0,0,.8-.436l.654,1.091a2.23,2.23,0,0,1-1.018.655,3.523,3.523,0,0,1-1.309.218H89.372Z" transform="translate(-38.904 -108.8)"/><path class="a" d="M98.8,109.264c0-.291.145-.364.436-.364h5.09v1.309h-4v2.327H103.6v1.309h-3.272v2.327H104.4v1.309H99.236c-.291,0-.436-.145-.436-.364Z" transform="translate(-42.15 -108.827)"/><path class="a" d="M112.109,112.318a5.928,5.928,0,0,1-.727-1.236v6.327H110v-8.145c0-.145.073-.291.145-.291a3.151,3.151,0,0,1,.364-.073h.364c.218,0,.364,0,.436.073a.858.858,0,0,1,.364.364l3.127,4.727a6.4,6.4,0,0,0,.436.727,4.174,4.174,0,0,1,.291.509v-6.4h1.382v8.145c0,.145-.073.291-.145.291a.545.545,0,0,1-.364.073h-.364c-.218,0-.364,0-.436-.073s-.218-.145-.291-.291Z" transform="translate(-45.206 -108.827)"/><path class="a" d="M126.527,117.381h-1.454v-7.272H122.6V108.8H129v1.309h-2.472Z" transform="translate(-48.643 -108.8)"/><path class="a" d="M140.854,112.536v.436c0,.145,0,.218-.073.291s-.073.145-.145.218a1,1,0,0,0-.218.291l-.364.364c-.145.145-.218.218-.291.218L141,117.408h-1.6l-1.091-2.763h-2.254v2.763H134.6v-8.145c0-.291.145-.364.436-.364h3.491a2.6,2.6,0,0,1,1.891.655,2.541,2.541,0,0,1,.436.654,3.791,3.791,0,0,1,.145,1.018v1.309Zm-4.8-2.327v3.2h2.763c.073,0,.073-.073.145-.145l.291-.291c.073-.073.073-.145.145-.145v-1.6c0-.218,0-.364-.073-.436-.073-.145-.073-.218-.145-.291a1.264,1.264,0,0,0-.873-.218h-2.254Z" transform="translate(-51.916 -108.827)"/><path class="a" d="M146.9,109.264c0-.291.146-.364.436-.364h5.09v1.309h-4v2.327H151.7v1.309h-3.272v2.327H152.5v1.309h-5.163c-.291,0-.436-.145-.436-.364Z" transform="translate(-55.272 -108.827)"/></g><g transform="translate(0.011 -0.038)"><g transform="translate(2.028)"><g transform="translate(37.088)"><path class="b" d="M87.252-.01C75.034-.447,63.763,4.353,53.8,11.552,63.69,6.462,74.453,3.7,85.434,5.3c14.326,2.109,26.834,9.526,38.178,18.689a132.962,132.962,0,0,1,18.326,6.327c2.982,1.236,6.327,2.472,9.526,4l1.454-.291C133.647,18.752,112.413,1.008,87.252-.01Z" transform="translate(-53.8 0.038)"/></g><g transform="translate(0 6.125)"><path class="a" d="M109.191,27.522C97.773,18.359,85.338,11.014,70.939,8.832c-10.981-1.6-21.744,1.236-31.634,6.254C28.543,20.613,18.8,28.758,10.8,36.9c-2.763,2.836-5.454,5.672-8,8.654l1.963.145a100.916,100.916,0,0,1,12.944-9.6,73.566,73.566,0,0,1,15.271-7.272,66.7,66.7,0,0,1,16.362-3.345,68.178,68.178,0,0,1,7.708-.145,77.893,77.893,0,0,1,10.035.873A138.225,138.225,0,0,1,91.81,32.394c10.981,3.709,21.962,7.636,32,13.453,1.309.8,2.691,1.527,4.072,2.254l2.836-.509A269.973,269.973,0,0,0,109.191,27.522Z" transform="translate(-2.8 -8.385)"/></g></g><g transform="translate(0 49.147)"><path class="c" d="M87.123,81.475c-1.018-5.6,4.072-11.708,10.545-13.526,7.49-1.527,13.817,1.382,14.98,7.127.8,5.6-3.563,11.49-10.835,13.235-6.908,1.236-13.526-1.236-14.69-6.836Zm9.672-6.763c-2.545,2.836-3.127,6.618-1.454,8.363,1.745,1.745,5.163.8,7.636-2.036,2.545-2.836,3.127-6.618,1.454-8.363-1.745-1.745-5.163-.873-7.636,2.036ZM61.888,73.621A2.066,2.066,0,0,0,60.8,71.948a6.346,6.346,0,0,0-2.982-.582H56.507l-1.236,5.818h1.018a7.289,7.289,0,0,0,4.145-.945,2.544,2.544,0,0,0,1.454-2.618ZM47.635,87.8s-1.963.073-1.673-1.745l3.418-16a2.165,2.165,0,0,1,2.036-1.673h8.217a20.606,20.606,0,0,1,3.927.291,8.962,8.962,0,0,1,2.982.873,6.122,6.122,0,0,1,1.963,1.6,5.841,5.841,0,0,1,.8,2.618,5.753,5.753,0,0,1-3.054,5.454C64.07,80.6,60.943,81.111,56.8,81.111H54.544L53.089,87.8H47.635ZM15.711,73.548a1.9,1.9,0,0,0-1.018-1.673A5.359,5.359,0,0,0,12,71.367H10.184L9.093,76.6h1.818a6.909,6.909,0,0,0,3.636-.8,2.318,2.318,0,0,0,1.164-2.254ZM6.693,87.8H1.167c-.364,0-1.818-.145-.8-2.036l3.418-16c-.582-.654.291-1.382,1.236-1.382H14.4a25.271,25.271,0,0,1,3.563.218,9.718,9.718,0,0,1,2.691.8A3.881,3.881,0,0,1,22.4,70.93a4.355,4.355,0,0,1,.727,2.254c.145,2.254-.8,3.709-2.763,5.018a14.653,14.653,0,0,1-4.945,1.164s-.654.145.073.291a4.2,4.2,0,0,1,1.6.873c1.527,1.236,2.691,2.545,6.181,7.272h-8.29a69.72,69.72,0,0,0-4.436-7.127A2.54,2.54,0,0,0,8.439,79.8l-1.745,8ZM121.956,84.02h6.69L128.21,86.2a2.1,2.1,0,0,1-1.963,1.6H115.629a1.474,1.474,0,0,1-1.6-1.745l3.418-16a2.165,2.165,0,0,1,2.036-1.673H125.3L121.956,84.02Zm-87.12-7.708h8.8L43.2,78.348a2.179,2.179,0,0,1-2.036,1.673H34.036l-.873,4h8.872L41.6,86.2a2.1,2.1,0,0,1-1.963,1.6h-12.8a1.474,1.474,0,0,1-1.6-1.745l3.418-16a2.165,2.165,0,0,1,2.036-1.673h14.69l-.436,2.109a2.165,2.165,0,0,1-2.036,1.673h-7.2l-.873,4.145Zm54.1-7.927L88.5,70.494a2.1,2.1,0,0,1-2.036,1.673h-.436c-4.218,0-4.436,1.164-5.236,5.018l-1.018,4.654A7.105,7.105,0,0,1,72.8,87.8H62.179l.436-2.109a2.165,2.165,0,0,1,2.036-1.673H67.2c4.218,0,4.436-1.164,5.236-5.018l1.018-4.654c1.236-5.89,7.636-5.963,8.654-5.963Z" transform="translate(-0.011 -67.546)"/></g></g></g></svg>